# xmcd
#
# Track frame offsets:
#	150
#	21570
#	43135
#	62582
#	81172
#	121467
#	136205
#	161697
#	185497
#	198390
#	239872
#
# Disc length: 3631 seconds
#
# Revision: 0
# Processed by: cddbd v1.5.1PL0 Copyright (c) Steve Scherf et al.
# Submitted via: EasyCDDAExtractor 7.5.0.1
#
DISCID=a20e2d0b
DTITLE=Jimmy McGriff - McGriff's Blues
DYEAR=1994
DGENRE=Blues
TTITLE0=McGriff's Blues
TTITLE1=Charlotte
TTITLE2=You Ought To Think About Me
TTITLE3=Have A Heart
TTITLE4=One Minute 'til Six
TTITLE5=Fake I.D.
TTITLE6=Dr. Feelgood
TTITLE7=Evita
TTITLE8=Hallelujah I Love Her So
TTITLE9=Goin' Home
TTITLE10=One O'clock, C Jam
EXTD=
EXTT0=
EXTT1=
EXTT2=
EXTT3=
EXTT4=
EXTT5=
EXTT6=
EXTT7=
EXTT8=
EXTT9=
EXTT10=
PLAYORDER=
